<svg version="1" xmlns="http://www.w3.org/2000/svg" width="1333.333" height="1333.333" viewBox="0 0 1000.000000 1000.000000"><path d="M140.8 336.2C82.8 399.1 48.5 446.7 29.7 490c-21.8 50.2-25 94.5-9.1 126.3 9.8 19.5 26.9 36 46.6 45.2 18.6 8.6 38.8 12 65.3 11.2 29.1-.9 58.5-6.7 94.5-18.6 24.5-8.2 33.4-11.8 162-66.8 63-27 223.2-95.5 356-152.3 132.8-56.8 241.9-103.6 242.4-104.1.5-.4-1.3-.1-4 .6-4.6 1.3-569.1 151.4-665.9 177-48.6 12.9-57.2 14.8-74.8 17-16 2-41.8 2-53.3 0-20.4-3.6-35.3-10.7-48.1-22.8-34.3-32.6-35.3-86.2-2.8-153.2 3.5-7.2 7.7-15.4 9.4-18.3 1.7-2.8 3-5.2 2.7-5.2-.2 0-4.6 4.6-9.8 10.2z"/></svg>